<svg width="685" height="275" viewBox="0 0 685 275" fill="none" xmlns="http://www.w3.org/2000/svg">
<path d="M179.319 208.2L243.319 68.2H257.919L321.919 208.2H306.319L247.519 76.8H253.519L194.719 208.2H179.319ZM204.519 170.8L208.919 158.8H290.319L294.719 170.8H204.519Z" fill="white"/>
<path d="M345.079 208.2V68.2H359.879V208.2H345.079Z" fill="white"/>
<path d="M405.43 208.2V68.2H457.83C469.697 68.2 479.897 70.1333 488.43 74C496.964 77.7333 503.497 83.2 508.03 90.4C512.697 97.4667 515.03 106.067 515.03 116.2C515.03 126.067 512.697 134.6 508.03 141.8C503.497 148.867 496.964 154.333 488.43 158.2C479.897 161.933 469.697 163.8 457.83 163.8H413.63L420.23 157V208.2H405.43ZM501.03 208.2L465.03 157.4H481.03L517.23 208.2H501.03ZM420.23 158.2L413.63 151.2H457.43C471.43 151.2 482.03 148.133 489.23 142C496.564 135.867 500.23 127.267 500.23 116.2C500.23 105 496.564 96.3333 489.23 90.2C482.03 84.0667 471.43 81 457.43 81H413.63L420.23 74V158.2Z" fill="white"/>
<path d="M611.161 209.4C600.628 209.4 590.828 207.667 581.762 204.2C572.828 200.6 565.028 195.6 558.362 189.2C551.828 182.667 546.695 175.133 542.962 166.6C539.362 157.933 537.562 148.467 537.562 138.2C537.562 127.933 539.362 118.533 542.962 110C546.695 101.333 551.828 93.8 558.362 87.4C565.028 80.8667 572.828 75.8667 581.762 72.4C590.695 68.8 600.494 67 611.161 67C621.694 67 631.428 68.8 640.361 72.4C649.294 75.8667 657.028 80.8 663.561 87.2C670.228 93.6 675.361 101.133 678.961 109.8C682.694 118.467 684.561 127.933 684.561 138.2C684.561 148.467 682.694 157.933 678.961 166.6C675.361 175.267 670.228 182.8 663.561 189.2C657.028 195.6 649.294 200.6 640.361 204.2C631.428 207.667 621.694 209.4 611.161 209.4ZM611.161 196.2C619.561 196.2 627.294 194.8 634.361 192C641.561 189.067 647.761 185 652.961 179.8C658.294 174.467 662.428 168.333 665.361 161.4C668.294 154.333 669.761 146.6 669.761 138.2C669.761 129.8 668.294 122.133 665.361 115.2C662.428 108.133 658.294 102 652.961 96.8C647.761 91.4667 641.561 87.4 634.361 84.6C627.294 81.6667 619.561 80.2 611.161 80.2C602.761 80.2 594.962 81.6667 587.762 84.6C580.562 87.4 574.295 91.4667 568.962 96.8C563.762 102 559.628 108.133 556.562 115.2C553.628 122.133 552.162 129.8 552.162 138.2C552.162 146.467 553.628 154.133 556.562 161.2C559.628 168.267 563.762 174.467 568.962 179.8C574.295 185 580.562 189.067 587.762 192C594.962 194.8 602.761 196.2 611.161 196.2Z" fill="white"/>
<mask id="path-2-inside-1_5_84" fill="white">
<path d="M244.026 50.5612C225.329 27.651 199.744 11.3792 171.067 4.16012C142.39 -3.05892 112.15 -0.840502 84.8336 10.4862C57.5173 21.8129 34.5805 41.6444 19.4265 67.0379C4.27259 92.4314 -2.29099 122.034 0.709749 151.453C3.71049 180.872 16.1156 208.539 36.0845 230.35C56.0533 252.161 82.5218 266.953 111.562 272.531C140.603 278.11 170.668 274.177 197.297 261.317C223.926 248.456 245.699 227.354 259.386 201.141L256.963 199.875C243.548 225.568 222.207 246.251 196.108 258.855C170.009 271.46 140.541 275.314 112.078 269.847C83.6148 264.38 57.6725 249.882 38.1007 228.504C18.5288 207.127 6.37029 180.009 3.4292 151.175C0.488124 122.341 6.92121 93.3274 21.7739 68.4387C36.6266 43.55 59.1074 24.1128 85.8806 13.0113C112.654 1.90977 142.293 -0.264545 170.399 6.81099C198.506 13.8865 223.583 29.8349 241.909 52.2896L244.026 50.5612Z"/>
</mask>
<path d="M244.026 50.5612C225.329 27.651 199.744 11.3792 171.067 4.16012C142.39 -3.05892 112.15 -0.840502 84.8336 10.4862C57.5173 21.8129 34.5805 41.6444 19.4265 67.0379C4.27259 92.4314 -2.29099 122.034 0.709749 151.453C3.71049 180.872 16.1156 208.539 36.0845 230.35C56.0533 252.161 82.5218 266.953 111.562 272.531C140.603 278.11 170.668 274.177 197.297 261.317C223.926 248.456 245.699 227.354 259.386 201.141L256.963 199.875C243.548 225.568 222.207 246.251 196.108 258.855C170.009 271.46 140.541 275.314 112.078 269.847C83.6148 264.38 57.6725 249.882 38.1007 228.504C18.5288 207.127 6.37029 180.009 3.4292 151.175C0.488124 122.341 6.92121 93.3274 21.7739 68.4387C36.6266 43.55 59.1074 24.1128 85.8806 13.0113C112.654 1.90977 142.293 -0.264545 170.399 6.81099C198.506 13.8865 223.583 29.8349 241.909 52.2896L244.026 50.5612Z" stroke="white" stroke-width="2.31092" mask="url(#path-2-inside-1_5_84)"/>
<path d="M94.0007 176L93.4007 158L172.999 68H189.999L115.7 153.3L107.3 162.3L94.0007 176ZM145.499 207.5C117.147 174.813 120.352 177.187 92 144.5L104.5 140.5L163.099 207.5H145.499Z" fill="white"/>
</svg>
