<svg width="275" height="275" viewBox="0 0 275 275" fill="none" xmlns="http://www.w3.org/2000/svg">
<mask id="path-1-inside-1_5_83" fill="white">
<path d="M244.026 50.5612C225.329 27.651 199.744 11.3792 171.067 4.16012C142.39 -3.05892 112.15 -0.840502 84.8336 10.4862C57.5173 21.8129 34.5805 41.6444 19.4265 67.0379C4.27259 92.4314 -2.29099 122.034 0.709749 151.453C3.71049 180.872 16.1156 208.539 36.0845 230.35C56.0533 252.161 82.5218 266.953 111.562 272.531C140.603 278.11 170.668 274.177 197.297 261.317C223.926 248.456 245.699 227.354 259.386 201.141L256.963 199.875C243.548 225.568 222.207 246.251 196.108 258.855C170.009 271.46 140.541 275.314 112.078 269.847C83.6148 264.38 57.6725 249.882 38.1007 228.504C18.5288 207.127 6.37029 180.009 3.4292 151.175C0.488124 122.341 6.92121 93.3274 21.7739 68.4387C36.6266 43.55 59.1074 24.1128 85.8806 13.0113C112.654 1.90977 142.293 -0.264545 170.399 6.81099C198.506 13.8865 223.583 29.8349 241.909 52.2896L244.026 50.5612Z"/>
</mask>
<path d="M244.026 50.5612C225.329 27.651 199.744 11.3792 171.067 4.16012C142.39 -3.05892 112.15 -0.840502 84.8336 10.4862C57.5173 21.8129 34.5805 41.6444 19.4265 67.0379C4.27259 92.4314 -2.29099 122.034 0.709749 151.453C3.71049 180.872 16.1156 208.539 36.0845 230.35C56.0533 252.161 82.5218 266.953 111.562 272.531C140.603 278.11 170.668 274.177 197.297 261.317C223.926 248.456 245.699 227.354 259.386 201.141L256.963 199.875C243.548 225.568 222.207 246.251 196.108 258.855C170.009 271.46 140.541 275.314 112.078 269.847C83.6148 264.38 57.6725 249.882 38.1007 228.504C18.5288 207.127 6.37029 180.009 3.4292 151.175C0.488124 122.341 6.92121 93.3274 21.7739 68.4387C36.6266 43.55 59.1074 24.1128 85.8806 13.0113C112.654 1.90977 142.293 -0.264545 170.399 6.81099C198.506 13.8865 223.583 29.8349 241.909 52.2896L244.026 50.5612Z" stroke="white" stroke-width="2.31092" mask="url(#path-1-inside-1_5_83)"/>
<path d="M94.9998 175.5L94.3998 157.5L173.998 67.5H190.998L116.699 152.8L108.299 161.8L94.9998 175.5ZM146.498 207C118.146 174.313 121.351 176.687 92.999 144L105.499 140L164.098 207H146.498Z" fill="white"/>
</svg>
